DataType=double
version=3
OpenSimVersion=4.4-2022-10-11-798caa840
endheader
time	ground_force_r_vx	ground_force_r_vy	ground_force_r_vz	ground_force_r_px	ground_force_r_py	ground_force_r_pz	ground_force_l_vx	ground_force_l_vy	ground_force_l_vz	ground_force_l_px	ground_force_l_py	ground_force_l_pz	ground_torque_r_x	ground_torque_r_y	ground_torque_r_z	ground_torque_l_x	ground_torque_l_y	ground_torque_l_z
2.705	-43.85839585818805	575.3989005840622	-41.53165728384323	1.137483851623148	0	-0.3961861758810297	-0.6857099303466749	0.2265467819461813	-0.03646511912733854	0.9317478214212103	0	-0.5186085543520048	0	3.087011992112593	0	0	-1.528943013862083e-10	0
2.71	-42.70879805769393	566.4368272821582	-41.49503398492679	1.140012156646919	0	-0.3964808680835012	-0.8883807379530897	0.2909500581895325	-0.04685164833056808	0.9526765588887252	0	-0.5174149434681414	0	2.956400679887182	0	0	-2.814658089933531e-10	0
2.715	-41.42280619738568	557.7984898283706	-41.3795790775278	1.142336329573606	0	-0.3968220845547009	-1.142170471208655	0.3712272472416518	-0.05942493026627373	0.9737848775313341	0	-0.5162305672679557	0	2.825362715919326	0	0	-5.199899816288323e-10	0
2.72	-40.0435845723582	549.4658150317018	-41.17272249070682	1.144452226041379	0	-0.3972069178573726	-1.451803900945247	0.468734420942317	-0.07387552832205074	0.9950689986821433	0	-0.5150666553278885	0	2.699682567732893	0	0	-9.627004748935519e-10	0
2.725	-38.60961435167954	541.423083470891	-40.85272170711661	1.146368780235346	0	-0.3976263135069067	-1.821171042979615	0.5845991508212204	-0.08955542130295671	1.016520767767659	0	-0.5139367698177305	0	2.577196072216005	0	0	-1.77997647177186e-09	0
2.73	-37.1849107497259	533.6500664860581	-40.44656560892313	1.148106730555464	0	-0.3980688552651721	-2.247843943900718	0.7179416740941715	-0.1054318852128827	1.038132777847834	0	-0.5128536628364619	0	2.454281046232452	0	0	-3.280002311423225e-09	0
2.735	-35.80427860333418	526.1046101506597	-39.98465592370397	1.149695965266143	0	-0.3985238104917406	-2.72502463741229	0.8666317201858272	-0.120189340103421	1.059895669797482	0	-0.5118294361090683	0	2.332572953544059	0	0	-6.000543700812599e-09	0
2.74	-34.52099074255857	518.7640150734829	-39.51722527842976	1.151166128124817	0	-0.3989773526919884	-3.240809672423217	1.026982123886647	-0.1321744724843663	1.081798892675919	0	-0.5108764305353086	0	2.215697727551266	0	0	-1.087497539242754e-08	0
2.745	-33.33065252817978	511.6171362794636	-39.11985041335804	1.152542594460678	0	-0.3994185677943063	-3.781653652172325	1.19488571392378	-0.139685180142609	1.103829569770048	0	-0.5100072866852789	0	2.107997722102326	0	0	-1.947805594593177e-08	0
2.75	-32.2316893163459	504.6738226147595	-38.82735371642738	1.153844173201461	0	-0.399840125290766	-4.334084389170516	1.366233494246731	-0.1410757306928347	1.125974066035188	0	-0.5092352161826663	0	2.010638005225964	0	0	-3.448154498042477e-08	0
2.755	-31.18911736606556	497.9854321623329	-38.66855230247119	1.155082441217453	0	-0.4002374649368461	-4.887818824014454	1.53797655170915	-0.1350092779896598	1.148217127883562	0	-0.508573435616294	0	1.926770854691107	0	0	-6.0316959232809e-08	0
2.76	-30.17438388446869	491.6308729625871	-38.6452257984721	1.156263917232874	0	-0.4006083748747167	-5.433612404548907	1.707455784609285	-0.1204647812090851	1.170541525730966	0	-0.5080347049307614	0	1.860649025818134	0	0	-1.042696041730906e-07	0
2.765	-29.14812121562564	485.7187180204553	-38.70497714983417	1.157390195761273	0	-0.4009489291855943	-5.966617213334515	1.873451865832465	-0.0968280115626453	1.192928477312304	0	-0.507631249745187	0	1.815315754137913	0	0	-1.779646194993711e-07	0
2.77	-28.06721638891664	480.3677296002251	-38.81557352178925	1.158460644919931	0	-0.4012552661915219	-6.477102343963366	2.033200059224634	-0.06395240134203095	1.215359361065612	0	-0.5073728676017488	0	1.794841375136357	0	0	-2.992842093596515e-07	0
2.775	-26.93517383973077	475.6665485948017	-38.92272759560093	1.159473866138172	0	-0.4015256904197128	-6.955699093488822	2.184116698004818	-0.02215612589762538	1.237815751691877	0	-0.5072679919169835	0	1.795319833454279	0	0	-4.943835497685234e-07	0
2.78	-25.7263688519629	471.6735069938864	-38.97890154883734	1.160431850206394	0	-0.4017644929591747	-7.385711701443331	2.321330681861592	0.02776793532830788	1.260279811283908	0	-0.507322473825317	0	1.803955924318096	0	0	-7.99943632973088e-07	0
2.785	-24.41518081784336	468.4957039957118	-38.97329219176407	1.161336870952256	0	-0.4019759087345591	-7.748291510353496	2.439267145684852	0.08422847143390851	1.282733684422852	0	-0.5075407356322563	0	1.816035618161621	0	0	-1.263123823619372e-06	0
2.79	-22.99043864049501	466.2228724183295	-38.8962477538546	1.162186994594446	0	-0.4021580990547377	-8.014601408093577	2.529011012161884	0.1446406913547288	1.305162248312719	0	-0.5079242397439788	0	1.838177107804995	0	0	-1.93705770046293e-06	0
2.795	-21.4109759630019	464.9212399022686	-38.78303419450555	1.162983148911935	0	-0.4023136518518805	-8.149644978972919	2.579496777902415	0.2052992945892151	1.32755176169622	0	-0.5084733064742538	0	1.874222991584993	0	0	-2.869347666301092e-06	0
2.8	-19.67609582162729	464.6302269982564	-38.62683287564779	1.163729595171616	0	-0.4024493226143785	-8.103155416613376	2.574527588807166	0.2608663219413027	1.349894160045583	0	-0.5091855372685837	0	1.922161440261092	0	0	-4.076833417299142e-06	0
2.805	-17.78385415995423	465.4044429143367	-38.46754412024055	1.16443180647733	0	-0.4025746696692507	-7.823152583984114	2.49686428004716	0.304446173480692	1.372183269614222	0	-0.5100571942943088	0	1.980820199947082	0	0	-5.515686263168895e-06	0
2.81	-15.73322750223816	467.2751834082499	-38.28545680620832	1.165096039581419	0	-0.4027021830475701	-7.247979689375751	2.325501843446466	0.3276188017192214	1.39442343228639	0	-0.5110813995140896	0	2.048271843806845	0	0	-7.048124821662505e-06	0
2.815	-13.54977981587602	470.250282529674	-38.07179318818238	1.165725734705785	0	-0.4028416795426539	-6.353029610812679	2.050558435150573	0.323237947474322	1.416621465030661	0	-0.5122501651002275	0	2.120840102334157	0	0	-8.45541024924179e-06	0
2.82	-11.24260593430482	474.3252375514519	-37.80901417532679	1.166322378644716	0	-0.4030025913796115	-5.155472948958727	1.674945924778699	0.2878119874759658	1.43879856316033	0	-0.5135555419773956	0	2.192336667166579	0	0	-9.499752684549723e-06	0
2.825	-8.832995547667096	479.3819900940444	-37.47044970699353	1.166887147482313	0	-0.4031918797558647	-3.773151606646231	1.234466846073098	0.2262703864546611	1.460975693784007	0	-0.5149941591191637	0	2.257031564581411	0	0	-9.951357470283639e-06	0
2.83	-6.328425598127884	485.262975151419	-37.05165320555264	1.167426649596266	0	-0.4034120690247373	-2.409792252553904	0.794281345525408	0.1528217132664536	1.483167444284884	0	-0.5165786905261321	0	2.315073256794442	0	0	-9.530017343550856e-06	0
2.835	-3.752436318105357	491.7821467081882	-36.5531393090253	1.167947009481043	0	-0.4036618307601157	-1.284049089472229	0.4265644810833508	0.08516280610137156	1.505347045571541	0	-0.5183570445627116	0	2.363601641415556	0	0	-8.171614376883962e-06	0
2.84	-1.106336348256653	498.7700316986421	-36.00040450087389	1.168453851235413	0	-0.4039368223972435	-0.5325031341212298	0.1783990488429642	0.03662811184863896	1.527339942759063	0	-0.5204894670454546	0	2.397927047966142	0	0	-6.212179286459174e-06	0
2.845	1.575956793523888	506.1124348130166	-35.42289421488427	1.168952204536375	0	-0.4042318688061584	-0.1423699104085652	0.04814158122706056	0.0100809944081401	1.54810954001546	0	-0.5238044723021759	0	2.417775140426734	0	0	-4.158128911449857e-06	0
2.85	4.281266935666647	513.7078973322531	-34.85671744070586	1.169446630445832	0	-0.4045410898285163	-0.00375444781560474	0.001288507774741805	0.0002496850117806326	1.498847770416484	0	-0.5788457627230911	0	2.424033521584107	0	0	1.931253028913298e-07	0
2.855	7.007660628520652	521.5372778805034	-34.36007838206167	1.169944316014612	0	-0.4048649219128437	-0.003472970233865984	0.001201830248237716	0.0002408465421945355	1.539575281606129	0	-0.5453815517800655	0	2.423202778622503	0	0	-4.769290677785615e-07	0
2.86	9.727278110646974	529.6001451163777	-33.94354908801496	1.170451629633863	0	-0.4052039950372291	-0.001984319100247791	0.0006945040353531853	0.0001387572948664052	1.556452244323752	0	-0.5357518413507174	0	2.42601202601606	0	0	-2.375912024795953e-07	0
2.865	12.47589906346226	537.9777187148416	-33.63460418853229	1.170974780304551	0	-0.4055600685964138	-0.00102158084025685	0.0003623765883828503	7.17140199811775e-05	1.571929739107707	0	-0.5365901486150225	0	2.438534332646341	0	0	-1.372933305009909e-07	0
2.87	15.27642177250849	546.7060240452863	-33.44346797298815	1.171519068019025	0	-0.4059382887983956	-0.0004926561889400588	0.0001775661304061584	3.453385089415418e-05	1.585700905962588	0	-0.5490998400239461	0	2.457260047005036	0	0	-1.177919349570639e-07	0
2.875	18.17686716822333	555.8350760702624	-33.34626002102025	1.172088343061447	0	-0.4063418784509699	-0.0002309282662678196	8.479764313899593e-05	1.569419609365821e-05	1.584224475653087	0	-0.57015056105799	0	2.479769412705494	0	0	-1.068924939243988e-07	0
2.88	21.21549855016288	565.3948306455751	-33.34013909481025	1.172685113430204	0	-0.4067727424951688	-0.000162861097890542	6.105053679849404e-05	9.850276380101126e-06	1.5429374825066	0	-0.5923254759454938	0	2.506449997393446	0	0	-1.033123282749073e-07	0
2.885	24.42698319940124	575.4312945391233	-33.40540455307305	1.173311544142387	0	-0.407233744714692	-0.0002651047976188846	0.0001013184482653193	1.379395614906683e-05	1.502499073675212	0	-0.5899099274104473	0	2.535307961364552	0	0	-8.557262163523508e-08	0
2.89	27.83268303892997	585.9702235405387	-33.52494665737317	1.173969917715103	0	-0.4077284144781555	-0.0006365562233480381	0.0002482581994603191	3.008758000459891e-05	1.496707896194746	0	-0.5823486563756708	0	2.564676317022858	0	0	-9.756447506258781e-08	0
2.895	31.39686007029757	596.9308700471039	-33.69090528597128	1.17466185466718	0	-0.4082613919980529	-0.001533042225975699	0.0006116633903895694	6.690805628595585e-05	1.502491400427243	0	-0.5793525770819284	0	2.592810808358358	0	0	-1.098250819709886e-07	0
2.9	35.085124304374	608.243828392572	-33.87492120848556	1.175390049408293	0	-0.4088393173942511	-0.003389931538088016	0.001387183233128917	0.0001366437206915281	1.512467756400066	0	-0.5783898141377996	0	2.615970085214265	0	0	-1.166694599807612e-07	0
